<svg focusable="false" aria-hidden="true" height="400" viewBox="0 0 400 400" width="400" xmlns="http://www.w3.org/2000/svg"><path d="m194.949 16.627c-2.688.424-6.102 1.415-8.269 2.402-2.662 1.212-142.99 82.254-145.446 83.998-5.8 4.117-10.186 10.587-12.235 18.05l-.845 3.077-.094 83.384c-.068 60.753.002 84.162.256 86.249 1.125 9.239 6.149 17.696 13.437 22.615 5.626 3.798 115.284 66.702 116.59 66.881 1.58.217 3.68-.469 4.673-1.525 1.645-1.752 23.689-43.663 29.972-56.985 30.521-64.714 32.807-90.74 11.793-134.232-4.535-9.387-4.047-9.308-7.435-1.202-17.508 41.89-39.272 62.609-69.038 65.726-1.777.187-3.612.4-4.077.475-1.312.212-1.005-.28.769-1.233 12.74-6.846 25.431-17.874 34.79-30.233 6.489-8.568 15.363-24.254 14.388-25.43-.546-.657-.549-.654-3.331 3.283-18.108 25.625-42.954 45.133-64.342 50.518-15.072 3.795-28.068 1.317-39.184-7.473-4.763-3.767-5.027-3.407-2.091 2.851 2.491 5.307 2.554 4.952-.872 4.926-8.735-.067-19.535-7.596-22.187-15.467-1.144-3.396-1.057-3.607 2.421-5.848 19.997-12.888 30.703-35.464 30.446-64.203-.088-9.913.118-10.424 7.348-18.183 9.237-9.915 17.72-16.756 29.614-23.884 5.16-3.093 11.376-6.506 11.543-6.339.075.075-3.041 4.143-6.923 9.04-10.477 13.216-10.96 14.488-8.945 23.584.498 2.249 1.086 5.076 1.307 6.282.55 2.996 1.47 2.829 2.207-.403 1.875-8.209 5.633-13.259 17.426-23.413 36.32-31.273 79.645-44.296 123.033-36.982 74.6 12.575 121.185 73.174 99.539 129.482-8.693 22.611-25.683 49.843-47.158 75.585-8.282 9.927-21.174 23.139-24.011 24.606l-.863.446 1.212-4.064c8.082-27.107 11.479-50.46 11.479-78.902 0-17.973-.229-17.25 2.463-7.778 2.566 9.027 4.129 17.105 4.913 25.384.922 9.74.883 9.627 1.973 5.693 6.856-24.763 2.798-63.681-9.091-87.173-2.145-4.239-1.19-3.412 3.051 2.642 9.256 13.214 15.458 29.601 17.61 46.531.873 6.871 1.264 6.668 2.96-1.539 6.302-30.5-5.734-64.453-29.337-82.756-3.24-2.512-2.797-2.481 1.988.14 41.681 22.829 50.835 59.09 27.873 110.409-1.67 3.731-1.978 4.976-1.233 4.976.4 0 6.714-8.523 9.688-13.077 17.748-27.176 20.927-57.213 8.693-82.153-21.309-43.443-79.166-63.843-135.17-47.661-12.094 3.494-24.381 8.585-24.381 10.102 0 .096 1.766.175 3.923.175 53.143.017 87.595 32.282 74.853 70.1-1.342 3.983-3.59 8.788-8.23 17.591-5.369 10.186-5.322 9.879-.941 6.249 11.2-9.278 20.934-21.505 26.897-33.787.904-1.862 1.584-3.039 1.512-2.616-.072.424-.215 2.224-.319 4-1.607 27.594-14.767 53.944-37.233 74.551-4.226 3.875-4.685 4.411-3.498 4.08 6.413-1.787 23.564-14.532 36.703-27.273 2.468-2.394 4.487-4.288 4.487-4.21 0 .383-1.881 9.362-2.317 11.06-3.09 12.036-9.176 24.768-17.328 36.254-4.936 6.953-10.202 13.019-22.634 26.069-1.924 2.02-1.708 2.233 1.193 1.175 7.411-2.703 24.175-14.545 33.932-23.97 1.566-1.512 2.846-2.606 2.846-2.43 0 .788-2.677 7.981-4.282 11.503-4.128 9.06-9.805 17.672-22.558 34.222-1.676 2.175-2.965 4.036-2.865 4.136.746.746 18.812-9.551 26.889-15.326l2.26-1.616-.53 1.041c-.291.573-3.936 6.788-8.099 13.811-8.461 14.276-9.044 15.547-9.029 19.693.037 10.587 11.052 18.332 20.616 14.496 1.956-.784 85.253-48.784 87.912-50.659 7.136-5.031 11.958-13.285 13.063-22.358.254-2.087.323-25.496.255-86.249l-.093-83.384-.845-3.077c-2.049-7.462-6.434-13.931-12.235-18.051-2.504-1.778-142.81-82.796-145.532-84.036-4.648-2.116-12.542-3.172-17.67-2.363m-99.945 126.299c-2.173 1.224-2.331 5.183-.252 6.296 1.66.888 4.333.249 5.091-1.216 1.719-3.324-1.659-6.871-4.839-5.08m63.919-.263c-.338.071-2.048.411-3.799.755-6.161 1.212-13.375 3.854-23.771 8.707l-5.108 2.385-.187 3.899c-.449 9.413-2.799 18.522-8.79 34.078-2.684 6.969-2.783 7.328-1.96 7.093.296-.085 1.613-.448 2.927-.807 13.591-3.718 24.226-12.977 28.075-24.443 1.556-4.637 1.832-6.985 1.988-16.929.006-.363 2.63-3.23 6.637-7.252 7.427-7.455 7.88-8.306 3.988-7.486m48.682.118c-3.581.894-6.067 4.168-6.067 7.988 0 10.033 15.127 10.704 15.929.708.47-5.848-4.328-10.079-9.862-8.696m-121.354 9.054c-1.99.865-2.642 4.21-1.164 5.967 2.396 2.847 6.759 1.195 6.759-2.559 0-2.982-2.739-4.65-5.595-3.408m141.515 1.122c-4.158 2.058-4.126 9.176.05 11.072 4.343 1.972 9.121-.906 9.1-5.481-.021-4.722-4.892-7.698-9.15-5.591m-11.458 9.414c-2.206.806-3.321 3.713-2.332 6.08 1.082 2.591 6.239 2.793 7.573.297 1.845-3.45-1.642-7.692-5.241-6.377m-77.124 3.168c3.742 3.285-2.81 15.224-10.647 19.401-.996.531-1.87.906-1.943.834-.13-.13 4.135-15.32 4.743-16.894 1.383-3.577 5.555-5.354 7.847-3.341m-38.725 52.203c-8.27 5.514-10.664 8.469-9.689 11.955 1.749 6.245 14.203 4.457 17.091-2.454l.495-1.186-3.411.195-3.411.195 2.186-3.258c2.499-3.724 3.049-4.881 3.049-6.41v-1.087h-1.618c-1.482 0-1.875.172-4.692 2.05m19.656 45.961c2.988.923 4.852 2.832 10.925 11.19 2.84 3.909 5.279 7.304 5.42 7.544.404.689-6.681-3.157-10.438-5.666-5.558-3.713-15.281-11.95-14.734-12.484 1.067-1.039 6.243-1.382 8.827-.584m-25.499 10.78c3.68 4.073 7.028 7.807 7.441 8.298l.75.891-1.634-.575c-7.849-2.761-23.858-13.745-22.302-15.301.163-.164 4.47-.528 7.938-.673 1.083-.045 1.312.171 7.807 7.36" fill-rule="evenodd"></path></svg>